<svg id="e3765994-c193-4947-bef9-b94ca6e769a9" data-name="Layer 1" xmlns="http://www.w3.org/2000/svg" viewBox="0 0 368.35 259.62"><g id="b39e014b-20ce-4f3a-878a-0dcb0cfe0301" data-name="bass"><g id="be2c68a0-f38e-460f-91a8-014fdf5e4ed9" data-name="bass"><path d="M7234.85,7015.68s26.9-5.2,36.07-6.07c16.1-1.54,48.76-1.19,64.91,0,10.35.76,40.81,6.07,40.81,6.07v110.6s-28.27,3.29-37.77,3.76c-14.4.72-43.31.7-57.7,0-11.63-.56-46.32-3.76-46.32-3.76Z" transform="translate(-7126.72 -6982.95)" style="fill:none;stroke:#00a99d;stroke-miterlimit:10"/><path d="M7232.1,7025.94s7.87-5.27,28.52-9.26c18.84-3.64,22.17-3.64,46.42-3.64,22.06,0,46.73,2.65,57.12,5.11,3.58.84,14.12,6,14.38,6.39.85,1.37,1.13,2.7.11,3.22s-1.33-.48-5.62-2.64c-2.42-1.22-5.61-2.06-8.12-3.14-7.29-3.15-42.15-5.62-57.88-5.62-14.67,0-26.12-.5-43.91,3.13-12.42,2.54-19.57,5.21-23.32,6.79-1.6.67-4.89,3.55-6,3.14C7232.46,7029,7231.94,7027.06,7232.1,7025.94Zm97.41-18,.81,5.26,3.09,4.13-.85,24.82,3.6.4.71-34.62-7.32-.49Zm-54.91-.13-7.29.61L7269,7043l3.59-.47-1.58-24.8,3-4.18.65-5.28Zm96.57,6.08.7,5.28,3,4.18-1.32,24.81,3.59.46,1.36-34.62-7.3-.6Zm-131.36.87-7.3.61,1.38,34.62,3.59-.47-1.33-24.81,3-4.18.7-5.27Zm-6.72,99.47s7.87,3.55,28.52,6.24c18.84,2.45,22.17,2.45,46.42,2.45,22.07,0,46.73-1.78,57.12-3.44a107.88,107.88,0,0,0,14.39-4.3c.84-.93,1.12-1.82.1-2.17s-1.33.32-5.62,1.78c-2.41.82-5.61,1.39-8.12,2.11-7.28,2.12-42.15,3.78-57.87,3.78-14.67,0-26.12.35-43.92-2.1a169.5,169.5,0,0,1-23.32-4.57c-1.59-.45-4.89-2.4-6-2.12A2.15,2.15,0,0,0,7233.09,7114.19Zm97.46,17.33,7.31-.48-.71-34.63-3.6.4.85,24.83-3.09,4.13-.8,5.26Zm-54.9-.86-.65-5.27-3-4.19,1.58-24.8-3.59-.46-1.72,34.61,7.3.6Zm96.56-3.1,7.3-.6-1.36-34.62-3.59.47,1.32,24.81-3,4.18-.71,5.27Zm-131.35.15-.71-5.28-3-4.18,1.34-24.81-3.6-.46-1.37,34.62,7.3.6Z" transform="translate(-7126.72 -6982.95)" style="fill:#b3b3b3"/></g><path id="ab95bd48-6377-4972-a611-952bc5790460" data-name="basspedal" d="M7299.62,7179.05h14.64v16.05h-14.64Zm14-14.54c-.37-1.48-.7-2.34-.88-2.95a11.53,11.53,0,0,1,0-6.07l1.48-5.06v-6.36l-1.4-9.4-3-3.9h-7.47l-2.81,3.9-.78,4.89v8.12l.78,5.78,2,3.62-.31,5.2-1.72,11.86,14.64-.07v-6.47A29.17,29.17,0,0,0,7313.66,7164.51Zm-11.08,14.54v-5.78h-3v5.78Zm11.68,1.29v-6.51l-2.53.24v5.78Z" transform="translate(-7126.72 -6982.95)" style="fill:none;stroke:#000;stroke-miterlimit:10"/><g id="bfadd707-678a-4058-9808-cd0b7a281e68" data-name="bassmallet"><rect x="171.67" y="151.47" width="16.33" height="10.27" style="fill:none;stroke:gray;stroke-miterlimit:10"/></g></g><g id="bb8ff007-1091-44f2-85f0-47eba6f1fa9d" data-name="floortom"><polygon points="292.7 145.17 255.51 145.17 225.43 167.03 213.94 202.39 225.43 237.76 255.51 259.62 292.7 259.62 322.79 237.76 334.28 202.39 322.79 167.03 292.7 145.17"/><circle cx="274.11" cy="202.39" r="53.29" style="fill:#fff"/></g><g id="e11bcea6-930f-4a11-8343-7e72248c2628" data-name="Snare"><polygon points="134.99 146.23 105.08 146.23 80.88 164.15 71.64 193.14 80.88 222.12 105.08 240.04 134.99 240.04 159.19 222.12 168.43 193.14 159.19 164.15 134.99 146.23"/><ellipse cx="120.03" cy="193.14" rx="42.87" ry="43.68" style="fill:#fff"/></g><g id="aa480322-fe49-4590-ad4d-09d9627e5e6d" data-name="smalltom"><polygon points="159.61 65.35 135.31 65.35 115.64 79.2 108.13 101.61 115.64 124.02 135.31 137.87 159.61 137.87 179.28 124.02 186.79 101.61 179.28 79.2 159.61 65.35"/><ellipse cx="147.46" cy="101.61" rx="34.83" ry="33.77" style="fill:#fff"/></g><g id="be657a46-d16a-407d-8565-84b483df5263" data-name="HiHat"><circle id="fa7cca53-d3dd-44c6-88e1-6ac45a5038b0" data-name="hatmain" cx="40.37" cy="175.6" r="39.37" style="fill:none;stroke:#ebd065;stroke-miterlimit:10;stroke-width:2px"/><circle id="a5276fed-4fa1-4c51-b1ee-f5cd2490e2ed" data-name="hatsmall" cx="40.12" cy="175.95" r="10.15" style="fill:none;stroke:#ebd065;stroke-miterlimit:10;stroke-width:2px"/><circle id="aaef3e65-abfc-457f-8db5-655afd78cba5" data-name="hatblack" cx="40.12" cy="175.95" r="2.46" style="fill:none;stroke:#ebd065;stroke-miterlimit:10;stroke-width:2px"/><path d="M7194.2,7210.58l11.05-7.91,9.34,13.05-11.05,7.91Zm2.13-19.42c-1.13-1-1.88-1.52-2.37-1.92a12.3,12.3,0,0,1-3.53-4.94l-1.83-4.91-3.7-5.18-6.53-6.88-4.5-1.58-5.65,4,.16,4.69,2.25,4.39,4.73,6.61,4,4.28,3.63,1.85,2.8,4.4,5.6,10.57,11-8-3.76-5.26C7198.09,7192.81,7197.32,7192,7196.33,7191.16Zm.11,17.82-3.37-4.7-2.23,1.59,3.36,4.71Zm9.56-5.27-3.78-5.29-1.78,1.56,3.37,4.7Z" transform="translate(-7126.72 -6982.95)" style="fill:none;stroke:#000;stroke-miterlimit:10"/></g><g id="b50c2470-78a5-4b15-91e4-31bc379b5df0" data-name="Crash"><circle id="bcb5be76-f06e-42b1-8df6-6043ee0b3c9f" data-name="crashmain" cx="66.4" cy="84.21" r="59.28" style="fill:none;stroke:#ebd065;stroke-miterlimit:10;stroke-width:2px"/><circle id="be7ab4b9-5242-4dc4-ad3b-0a9d07f21df8" data-name="crashsmall" cx="66.04" cy="84.74" r="15.28" style="fill:none;stroke:#ebd065;stroke-miterlimit:10;stroke-width:2px"/><circle id="bd03bab4-6d5d-4b9c-86c5-7676943d7d06" data-name="crashblack" cx="66.04" cy="84.74" r="3.7" style="fill:none;stroke:#ebd065;stroke-miterlimit:10;stroke-width:2px"/></g><g id="f906239c-b03f-4dc1-9c40-a8483e7605bd" data-name="Ride"><circle id="f4eeeda0-a6f5-4c5f-bdfe-b48a3208d372" data-name="ridemain" cx="258.83" cy="73.04" r="72.04" style="fill:none;stroke:#ebd065;stroke-miterlimit:10;stroke-width:2px"/><circle id="f0d97ac5-c97a-4800-a2e3-cc49833db06a" data-name="ridesmall" cx="258.38" cy="73.68" r="18.57" style="fill:none;stroke:#ebd065;stroke-miterlimit:10;stroke-width:2px"/><circle id="a75c4f1d-6648-4622-80ce-e2323421796b" data-name="rideblack" cx="258.38" cy="73.68" r="4.49" style="fill:none;stroke:#ebd065;stroke-miterlimit:10;stroke-width:2px"/></g><g id="f20f9ed6-1754-4b99-b235-0802803a7887" data-name="SmCrash"><circle id="ab270a04-fad1-4f29-97bb-2f699c60a41f" data-name="smcrashmain" cx="315.25" cy="144" r="52.1" style="fill:none;stroke:#ebd065;stroke-miterlimit:10;stroke-width:2px"/><circle id="a4002859-32f1-46c2-bd01-f3f7fe10b856" data-name="smcrashsmall" cx="314.93" cy="144.47" r="13.43" style="fill:none;stroke:#ebd065;stroke-miterlimit:10;stroke-width:2px"/><circle id="ebe09f2d-2a16-412c-afb1-d53446ff8311" data-name="smcrashblack" cx="314.93" cy="144.47" r="3.25" style="fill:none;stroke:#ebd065;stroke-miterlimit:10;stroke-width:2px"/></g></svg>